<svg style="display: none;" aria-hidden="true" xmlns="http://www.w3.org/2000/svg" xmlns:xlink="http://www.w3.org/1999/xlink"><symbol viewBox="0 0 31 22" id="svg-arrow-back" xmlns="http://www.w3.org/2000/svg"><path d="M30.7649 10.0526V11.5493C30.7649 11.9626 30.4298 12.2977 30.0165 12.2977H5.81453L12.4749 18.9431C12.6166 19.0836 12.6963 19.2749 12.6963 19.4745C12.6963 19.674 12.6166 19.8653 12.4749 20.0058L11.4123 21.0535C11.2718 21.1952 11.0805 21.2749 10.8809 21.2749C10.6814 21.2749 10.4901 21.1952 10.3496 21.0535L1.15972 11.8786C0.949146 11.6683 0.830706 11.3829 0.830444 11.0853V10.5166C0.833893 10.2196 0.951853 9.93542 1.15972 9.7233L10.3496 0.54839C10.4901 0.406716 10.6814 0.327026 10.8809 0.327026C11.0805 0.327026 11.2718 0.406716 11.4123 0.54839L12.4749 1.61106C12.6157 1.74901 12.6951 1.93781 12.6951 2.13492C12.6951 2.33202 12.6157 2.52083 12.4749 2.65877L5.81453 9.30422H30.0165C30.4298 9.30422 30.7649 9.63927 30.7649 10.0526Z" fill="#333333"/></symbol><symbol id="svg-arrow-down" viewBox="0 0 330 330" style="enable-background:new 0 0 330 330;" xml:space="preserve" xmlns="http://www.w3.org/2000/svg">
<path id="bXMLID_225_" d="M325.607,79.393c-5.857-5.857-15.355-5.858-21.213,0.001l-139.39,139.393L25.607,79.393  c-5.857-5.857-15.355-5.858-21.213,0.001c-5.858,5.858-5.858,15.355,0,21.213l150.004,150c2.813,2.813,6.628,4.393,10.606,4.393  s7.794-1.581,10.606-4.394l149.996-150C331.465,94.749,331.465,85.251,325.607,79.393z"/>
<g>
</g>
<g>
</g>
<g>
</g>
<g>
</g>
<g>
</g>
<g>
</g>
<g>
</g>
<g>
</g>
<g>
</g>
<g>
</g>
<g>
</g>
<g>
</g>
<g>
</g>
<g>
</g>
<g>
</g>
</symbol><symbol viewBox="0 0 31 22" id="svg-arrow-forward" xmlns="http://www.w3.org/2000/svg"><path d="M0.2351 11.33L0.2351 9.83326C0.2351 9.41995 0.570153 9.0849 0.983462 9.0849L25.1855 9.0849L18.5251 2.43945C18.3834 2.29894 18.3037 2.10766 18.3037 1.90812C18.3037 1.70858 18.3834 1.5173 18.5251 1.37678L19.5877 0.329074C19.7282 0.1874 19.9195 0.107709 20.1191 0.107709C20.3186 0.107709 20.5099 0.1874 20.6504 0.329074L29.8403 9.50399C30.0509 9.7143 30.1693 9.99963 30.1696 10.2973L30.1696 10.866C30.1661 11.163 30.0481 11.4472 29.8403 11.6593L20.6504 20.8342C20.5099 20.9759 20.3186 21.0555 20.1191 21.0555C19.9195 21.0555 19.7282 20.9759 19.5877 20.8342L18.5251 19.7715C18.3843 19.6336 18.3049 19.4448 18.3049 19.2477C18.3049 19.0505 18.3843 18.8617 18.5251 18.7238L25.1855 12.0783L0.983462 12.0783C0.570153 12.0783 0.2351 11.7433 0.2351 11.33Z" fill="#333333"/></symbol><symbol viewBox="0 0 11 8" id="svg-check" xmlns="http://www.w3.org/2000/svg"><path d="M3.7224 6.44241L1.73243 4.45244C1.51069 4.2307 1.15819 4.2307 0.936446 4.45244C0.714707 4.67418 0.714707 5.02669 0.936446 5.24843L3.31872 7.6307C3.54046 7.85244 3.89865 7.85244 4.12039 7.6307L10.1471 1.60963C10.3689 1.38789 10.3689 1.03538 10.1471 0.813643C9.92541 0.591904 9.5729 0.591904 9.35116 0.813643L3.7224 6.44241Z" fill="white"/></symbol><symbol viewBox="0 0 66 66" id="svg-first-benefit" xmlns="http://www.w3.org/2000/svg">
		<g>
			<g><path d="m37.82 48.55h-29.46c-2.04 0-3.7-1.66-3.7-3.7v-13.97c.06.02.11.05.18.07 1.52.46 2.88.83 4.14 1.14.14.04.28.07.41.1.32.09.63.16.94.23 1.53.36 2.89.64 4.12.85.04.01.08.02.04 0 .04.01.15.03.19.04l.13.02c1.73.3 3.45.54 5.09.72.56.07 1.13.12 1.66.16.15.02.3.03.44.04.52.05 1.05.09 1.57.12l1.83.09c.04 1 .43 1.93 1.14 2.65.75.75 1.75 1.16 2.81 1.16 2.14 0 3.88-1.72 3.95-3.85.39-.02.79-.04 1.18-.07 2.07-.14 4.19-.36 6.29-.66.4-.06.67-.42.62-.82-.06-.4-.42-.68-.82-.62-2.07.29-4.15.51-6.2.65-.35.03-.7.04-1.07.06v-2.09c0-.83-.68-1.51-1.51-1.51h-4.9c-.83 0-1.51.68-1.51 1.51v2.12c-.58-.03-1.16-.05-1.73-.09-.5-.03-1.02-.07-1.54-.12-.12-.01-.24-.02-.39-.04-.55-.05-1.1-.1-1.66-.16-1.41-.15-2.88-.36-4.41-.62v-20.86h3.46 20.45 3.47v14.33c0 .4.32.73.73.73s.73-.32.73-.73v-14.33h3.89v14.33c0 .4.32.73.73.73.4 0 .73-.32.73-.73v-14.33h3.77c1.25 0 2.27 1.02 2.27 2.27v12.05c0 .4.32.73.73.73.4 0 .73-.32.73-.73v-12.05c0-2.05-1.67-3.72-3.72-3.72h-13.32v-4.93c0-1.55-1.26-2.81-2.81-2.81h-16.29c-1.55 0-2.81 1.26-2.81 2.81v4.92h-13.31c-2.05 0-3.72 1.67-3.72 3.72v12.9c0 1.5.69 2.89 1.85 3.81v14.77c0 2.84 2.31 5.15 5.15 5.15h29.46c.4 0 .73-.32.73-.73s-.33-.71-.73-.71zm-6.02-17.73c.03 0 .06.03.06.06v3.43c0 1.39-1.13 2.52-2.51 2.52-.67 0-1.3-.26-1.78-.73-.47-.48-.73-1.11-.73-1.78l.06-3.49h4.9zm-17.6.92c-1.1-.2-2.26-.44-3.56-.75-.11-.03-.23-.05-.34-.08v-19.81h3.9zm5.64-27.02c0-.75.61-1.36 1.36-1.36h16.28c.75 0 1.36.61 1.36 1.36v4.92h-19zm-17.03 8.65c0-1.25 1.02-2.27 2.27-2.27h3.77v19.46c-1.12-.28-2.3-.6-3.6-.99-.34-.11-.64-.25-.92-.44-.95-.64-1.52-1.7-1.52-2.85z" fill="#000000" data-original="#000000" class=""/><path d="m58.37 40.99v-3.74c0-.89-.72-1.61-1.61-1.61h-.19l4.32-3.23c.5-.37.8-.97.8-1.6v-2.44c0-.4-.32-.73-.73-.73h-17.35c-.4 0-.73.32-.73.73v2.44c0 .63.3 1.22.8 1.6l4.32 3.23h-.19c-.89 0-1.61.72-1.61 1.61v3.74c-3.74 2.13-6.27 6.14-6.27 10.74 0 6.82 5.54 12.36 12.35 12.36s12.35-5.54 12.35-12.36c.01-4.6-2.52-8.61-6.26-10.74zm-14.04-10.17v-1.72h15.91v1.71c0 .17-.08.33-.22.44l-4.16 3.11v-1.62c0-.4-.32-.73-.73-.73s-.73.32-.73.73v2.71l-.26.19h-3.74l-.26-.19v-2.71c0-.4-.32-.73-.73-.73s-.73.32-.73.73v1.62l-4.16-3.11c-.1-.1-.19-.26-.19-.43zm3.33 6.43c0-.09.07-.16.16-.16h8.96c.09 0 .16.07.16.16v3.04c-1.43-.58-2.99-.91-4.63-.91s-3.2.33-4.63.91v-3.04zm4.63 25.39c-6.01 0-10.9-4.89-10.9-10.91 0-6.01 4.89-10.9 10.9-10.9s10.9 4.89 10.9 10.9-4.89 10.91-10.9 10.91z" fill="#000000" data-original="#000000" class=""/><path d="m52.29 42.89c-4.87 0-8.84 3.97-8.84 8.84 0 4.88 3.97 8.84 8.84 8.84s8.84-3.97 8.84-8.84c0-4.88-3.97-8.84-8.84-8.84zm0 16.23c-4.07 0-7.39-3.32-7.39-7.39s3.31-7.39 7.39-7.39 7.39 3.31 7.39 7.39-3.32 7.39-7.39 7.39z" fill="#000000" data-original="#000000" class=""/><path d="m57.47 50.43c-.18-.54-.64-.93-1.2-1.01l-1.83-.27-.82-1.66c-.25-.51-.76-.83-1.33-.83s-1.08.32-1.33.83l-.82 1.66-1.83.27c-.56.08-1.02.47-1.2 1.01s-.03 1.12.37 1.52l1.32 1.29-.31 1.82c-.1.56.13 1.12.59 1.45.26.19.56.29.87.29.24 0 .47-.06.69-.17l1.64-.86 1.64.86c.5.27 1.1.22 1.56-.11s.69-.89.59-1.45l-.31-1.82 1.32-1.29c.42-.41.56-.99.39-1.53zm-2.99 2.04c-.17.17-.25.41-.21.64l.33 2.23-1.97-1.04c-.11-.06-.22-.08-.34-.08s-.23.03-.34.08l-2.02 1 .38-2.2c.04-.24-.04-.48-.21-.64l-1.58-1.61 2.21-.32c.24-.03.44-.18.55-.4l1.02-2.02c.02 0 .02.01.03.02l.99 2c.11.21.31.36.55.4l2.23.38z" fill="#000000" data-original="#000000" class=""/></g>
		</g>
</symbol><symbol viewBox="0 0 512 512" id="svg-second-benefit" xmlns="http://www.w3.org/2000/svg">
		<g>
			<g><path d="m304.502 178.461c-70.055-57.693-173.986-47.635-231.677 22.419-27.948 33.936-41.007 76.724-36.773 120.482 4.235 43.758 25.256 83.248 59.192 111.195 15.06 12.403 31.951 21.934 50.207 28.325 3.912 1.374 8.191-.691 9.558-4.6 1.369-3.91-.691-8.19-4.6-9.558-16.583-5.807-31.935-14.47-45.628-25.746-30.843-25.401-49.948-61.291-53.796-101.061-3.848-39.769 8.021-78.657 33.42-109.5 52.435-63.67 146.892-72.808 210.561-20.376 30.842 25.4 49.947 61.291 53.796 101.06 3.848 39.77-8.021 78.658-33.42 109.5-33.059 40.142-83.612 60.033-135.237 53.2-4.103-.541-7.877 2.346-8.42 6.453s2.346 7.876 6.453 8.42c7.166.947 14.378 1.418 21.588 1.418 20.165 0 40.287-3.684 59.156-10.91 26.422-10.119 49.95-27.079 68.04-49.045 27.948-33.935 41.007-76.723 36.772-120.481-4.234-43.757-25.256-83.248-59.192-111.195z" fill="#000000" data-original="#000000" class=""/><path d="m269.957 232.808c2.768-3.361 2.287-8.328-1.074-11.096-3.361-2.767-8.328-2.287-11.096 1.074-2.767 3.361-2.287 8.328 1.074 11.096 3.361 2.767 8.329 2.286 11.096-1.074z" fill="#000000" data-original="#000000" class=""/><path d="m130.633 389.585c3.361 2.768 8.328 2.287 11.096-1.074s2.287-8.328-1.074-11.096-8.328-2.287-11.096 1.074c-2.767 3.36-2.287 8.328 1.074 11.096z" fill="#000000" data-original="#000000" class=""/><path d="m271.525 364.751c-2.768 3.361-2.287 8.329 1.074 11.096 3.361 2.768 8.328 2.287 11.096-1.074s2.287-8.328-1.074-11.096c-3.361-2.767-8.329-2.287-11.096 1.074z" fill="#000000" data-original="#000000" class=""/><path d="m126.918 235.449c-3.361-2.768-8.328-2.287-11.096 1.074s-2.287 8.328 1.074 11.096 8.328 2.287 11.096-1.074c2.767-3.36 2.286-8.328-1.074-11.096z" fill="#000000" data-original="#000000" class=""/><path d="m300.902 303.78c4.333-.419 7.506-4.272 7.087-8.605s-4.272-7.506-8.605-7.087-7.506 4.272-7.087 8.605c.419 4.334 4.272 7.507 8.605 7.087z" fill="#000000" data-original="#000000" class=""/><path d="m98.614 307.516c-4.333.419-7.506 4.272-7.087 8.605s4.272 7.506 8.605 7.087 7.506-4.272 7.087-8.605-4.271-7.506-8.605-7.087z" fill="#000000" data-original="#000000" class=""/><path d="m208.713 398.187c-4.334.419-7.506 4.272-7.087 8.605s4.272 7.506 8.605 7.087 7.506-4.272 7.087-8.605-4.272-7.506-8.605-7.087z" fill="#000000" data-original="#000000" class=""/><path d="m197.89 204.504c-.419-4.333-4.272-7.506-8.605-7.087s-7.506 4.272-7.087 8.605c.082.844.297 1.642.617 2.38l9.593 97.838c.286 2.919 2.247 5.404 5.02 6.36l67.936 23.418c.81.278 1.634.411 2.445.411 3.112 0 6.02-1.951 7.092-5.058 1.35-3.917-.731-8.186-4.647-9.536l-63.385-21.85-9.122-93.045c.168-.779.224-1.598.143-2.436z" fill="#000000" data-original="#000000" class=""/><path d="m465.284 52.159c-3.196-2.633-7.924-2.176-10.558 1.022l-30.955 37.587c-1.515 1.84-4.246 2.103-6.087.586l-.195-.161c-1.839-1.515-2.104-4.244-.588-6.084l3.222-3.914c3.282-3.984 4.815-9.008 4.318-14.146s-2.965-9.774-6.95-13.055c-3.985-3.282-9.011-4.814-14.145-4.317-5.138.497-9.775 2.965-13.055 6.95l-27.763 33.711-13.032-10.732c-2.61-2.149-5.903-3.149-9.264-2.828-3.365.326-6.401 1.942-8.55 4.551l-9.638 11.703c-9.845-3.971-21.555-1.337-28.655 7.283l-8.327 10.112c-4.9 5.953-13.045 8.29-20.264 5.813-37.972-13.019-78.602-14.322-117.501-3.766-39.773 10.794-74.769 33.297-101.206 65.076-34.135 41.031-50.187 93.071-45.199 146.533 4.987 53.449 30.379 101.608 71.499 135.604 36.21 29.937 80.74 45.9 127.117 45.899 6.448 0 12.94-.309 19.442-.932 53.267-5.103 101.335-30.661 135.352-71.967 26.417-32.076 42.003-70.862 45.074-112.161 3.001-40.377-6.071-80.179-26.237-115.101-3.791-6.563-3.04-14.976 1.865-20.933l8.326-10.109c7.687-9.335 7.449-22.632.085-31.668l9.216-11.19c2.15-2.61 3.154-5.9 2.828-9.265-.325-3.365-1.942-6.401-4.551-8.55l-16.8-13.835 27.763-33.711c.733-.891 1.771-1.443 2.919-1.554 1.156-.111 2.273.231 3.164.966.891.734 1.443 1.771 1.554 2.92s-.231 2.273-.966 3.164l-3.223 3.914c-6.773 8.226-5.593 20.428 2.636 27.204l.195.161c8.226 6.772 20.428 5.592 27.201-2.632l30.954-37.587c2.635-3.201 2.177-7.928-1.021-10.561zm-93.137 80.642-13.433-11.063c-3.196-2.632-7.924-2.176-10.558 1.022s-2.176 7.925 1.022 10.558l21.211 17.468c4.252 3.501 4.862 9.808 1.362 14.059l-8.325 10.11c-8.862 10.76-10.178 26.02-3.277 37.971 18.654 32.303 27.045 69.125 24.268 106.486-2.839 38.192-17.256 74.064-41.693 103.737-31.466 38.208-75.931 61.85-125.203 66.57-49.272 4.716-97.418-10.052-135.568-41.595-38.026-31.438-61.508-75.985-66.122-125.436-4.615-49.463 10.228-97.601 41.793-135.545 24.455-29.396 56.823-50.21 93.603-60.191 35.993-9.768 73.583-8.565 108.705 3.478 13.102 4.495 27.855.288 36.712-10.467l8.326-10.112c3.502-4.251 9.809-4.862 14.06-1.361l7.583 6.245c3.198 2.632 7.926 2.177 10.558-1.022 2.634-3.198 2.176-7.925-1.022-10.559l-1.793-1.476 7.414-9.002 37.79 31.122z" fill="#000000" data-original="#000000" class=""/><path d="m504.499 49.586h-18.144c-4.143 0-7.501 3.358-7.501 7.501s3.358 7.501 7.501 7.501h18.144c4.143 0 7.501-3.358 7.501-7.501s-3.358-7.501-7.501-7.501z" fill="#000000" data-original="#000000" class=""/><path d="m462.653 6.414c-4.143 0-7.501 3.358-7.501 7.501v18.143c0 4.143 3.358 7.501 7.501 7.501s7.501-3.358 7.501-7.501v-18.143c0-4.143-3.358-7.501-7.501-7.501z" fill="#000000" data-original="#000000" class=""/><path d="m486.355 39.559c1.919 0 3.839-.733 5.303-2.197l12.83-12.829c2.93-2.93 2.93-7.679.001-10.608-2.929-2.928-7.679-2.93-10.608 0l-12.83 12.829c-2.93 2.93-2.93 7.679-.001 10.608 1.466 1.464 3.385 2.197 5.305 2.197z" fill="#000000" data-original="#000000" class=""/></g>
		</g>
</symbol><symbol viewBox="0 0 50 50" id="svg-telegram" xmlns="http://www.w3.org/2000/svg"><path d="M46.137,6.552c-0.75-0.636-1.928-0.727-3.146-0.238l-0.002,0C41.708,6.828,6.728,21.832,5.304,22.445 c-0.259,0.09-2.521,0.934-2.288,2.814c0.208,1.695,2.026,2.397,2.248,2.478l8.893,3.045c0.59,1.964,2.765,9.21,3.246,10.758 c0.3,0.965,0.789,2.233,1.646,2.494c0.752,0.29,1.5,0.025,1.984-0.355l5.437-5.043l8.777,6.845l0.209,0.125 c0.596,0.264,1.167,0.396,1.712,0.396c0.421,0,0.825-0.079,1.211-0.237c1.315-0.54,1.841-1.793,1.896-1.935l6.556-34.077 C47.231,7.933,46.675,7.007,46.137,6.552z M22,32l-3,8l-3-10l23-17L22,32z"/></symbol><symbol viewBox="0 0 512 512" id="svg-third-benefit" xmlns="http://www.w3.org/2000/svg">
		<g>
			<g><g id="hOutline"><rect x="286.005" y="99.796" width="18.09" height="16" transform="translate(78.346 335.202) rotate(-66.45)" fill="#000000" data-original="#000000" class=""/><path d="M121.349,416a22.413,22.413,0,0,0,22.557-24.7A25.684,25.684,0,0,0,118.525,368a22.412,22.412,0,0,0-22.557,24.7A25.682,25.682,0,0,0,121.349,416Zm-7.8-29.934a6.634,6.634,0,0,1,4.98-2.066,9.819,9.819,0,0,1,9.443,8.7,6.745,6.745,0,0,1-1.64,5.231A6.631,6.631,0,0,1,121.349,400a9.819,9.819,0,0,1-9.443-8.7A6.748,6.748,0,0,1,113.545,386.066Z" fill="#000000" data-original="#000000" class=""/><path d="M476.37,432A19.652,19.652,0,0,0,496,412.37V379.63A19.652,19.652,0,0,0,476.37,360H464v-8a8,8,0,0,0-8-8H384a8,8,0,0,0-8,8v96H331.1l35.7-107.1L405.333,312H424.87a16.006,16.006,0,0,1,15.473,20.077l15.474,4.067a32,32,0,0,0-29.216-40.1l1.8-1.347,18.263-10.436a82.057,82.057,0,0,0,8.52-136.886l-59.1-45.547a44.892,44.892,0,0,0,.771-34.282,43.811,43.811,0,0,0-24.035-24.212L313.782,18.76a35.889,35.889,0,0,0-46.551,18.531,34.329,34.329,0,0,0-.4,26.709H182.64A66.856,66.856,0,0,0,151.7,71.621l7.434,14.168A50.784,50.784,0,0,1,182.64,80h88.983l-34.708,28.968a7.975,7.975,0,0,0-.235,12.062l-45.9,7.063a8,8,0,0,0-6.211,10.878l12.964,32.409-48.571,18.214-14.326-42.985a51.261,51.261,0,0,1,1.494-35.939,50.158,50.158,0,0,1,13.34-18.284L138.989,80.3a66.948,66.948,0,0,0-17.563,24.068,67.631,67.631,0,0,0-1.966,47.3l16.951,50.863,23.249,69.745-6.5,24.937,15.483,4.039,7.1-27.233a7.994,7.994,0,0,0-.152-4.55l-21.562-64.686,50.038-18.764,20.78,41.558a8,8,0,0,0,4.8,4.068l104,32a8,8,0,0,0,6.319-.7l48.657-27.8,25.233,50.464L355.2,329.6a8,8,0,0,0-2.789,3.87L314.234,448H304V424a8,8,0,0,0-8-8H222.807l-20.118-85.5A23.907,23.907,0,0,0,179.328,312H38.146a22.146,22.146,0,0,0-21.4,27.853l5.922,22.209,15.46-4.124-5.922-22.209A6.144,6.144,0,0,1,38.146,328H179.328a7.97,7.97,0,0,1,7.787,6.167l24.471,104A8,8,0,0,1,203.8,448H68.292a8.011,8.011,0,0,1-7.73-5.938L42,372.466l-15.46,4.123,18.559,69.6c.164.617.356,1.221.566,1.815H24a8,8,0,0,0-8,8v32a8,8,0,0,0,8,8H488a8,8,0,0,0,8-8V456a8,8,0,0,0-8-8H464V432ZM286.239,213.166a32.259,32.259,0,0,0,42.044-13.826l18.553-34.83,1.346,7.125-30.649,70.313-54.891-16.89L271,205.882ZM282.216,43.821c3.054-7.011,9.978-12.409,18.263-11.733,4.55.371,8.851,2.142,13.067,3.892l45.126,18.735c21.141,8.776,30.048,23.024,20.7,45.118Q369.66,122.8,359.463,145.56c.035-3.575-.77-7.327-3.143-10s-6.583-3.9-9.677-2.112c-2.05,1.188-3.258,3.39-4.365,5.484L317.3,186.167c-7.007,13.252-15.547,16.831-29.63,10.06l-31.07-14.94c-3.528-1.7-7.369-3.723-8.729-7.394-2.305-6.221,3.778-12.2,5.31-18.659a30.209,30.209,0,0,0,30.989.729l-9.72-12.794a16.824,16.824,0,0,1-14.84-2.66l3.492-7.969,32.847,13.707c4.443,1.854,7.51,1.5,11.506-1.281l32.688-22.79c3.582-2.5,7.26-5.094,9.586-8.789a16.892,16.892,0,0,0-2.68-20.674c-2.905-2.713-6.674-4.268-10.353-5.768L299.473,71.777c-5.525-2.252-11.287-4.673-15.079-9.28C279.821,56.94,279.613,49.8,282.216,43.821Zm8.211,41.326,45.462,18.927a1.017,1.017,0,0,1-.136,1.544l-35.665,25L257.3,112.8Zm-87.26,57.229,40.939-6.3L233.5,160.4a25.54,25.54,0,0,0-.291,19.884A25.868,25.868,0,0,0,247.2,194.5l9.358,4.474-9.3,21.347-9.626-2.963ZM335.039,247.335l-2.116-.651,33.2-76.168,37.215,36.309Zm67.275-20.6,18.124-12.083a8,8,0,0,0,1.149-12.383l-48.629-47.444,16.132-37.014,56.49,42.365a66.046,66.046,0,0,1-6.859,110.194l-11.347,6.484ZM476.37,376a3.634,3.634,0,0,1,3.63,3.63v32.74a3.634,3.634,0,0,1-3.63,3.63H464V376ZM227.16,434.5l-.589-2.5H288v16H226.434A23.886,23.886,0,0,0,227.16,434.5ZM480,480H32V464H480Zm-88-32V360h56v88Z" fill="#000000" data-original="#000000" class=""/></g></g>
		</g>
</symbol><symbol viewBox="0 0 24 24" id="svg-vk" xmlns="http://www.w3.org/2000/svg"><path class="ist0" d="M13.162 18.994c.609 0 .858-.406.851-.915-.031-1.917.714-2.949 2.059-1.604 1.488 1.488 1.796 2.519 3.603 2.519h3.2c.808 0 1.126-.26 1.126-.668 0-.863-1.421-2.386-2.625-3.504-1.686-1.565-1.765-1.602-.313-3.486 1.801-2.339 4.157-5.336 2.073-5.336h-3.981c-.772 0-.828.435-1.103 1.083-.995 2.347-2.886 5.387-3.604 4.922-.751-.485-.407-2.406-.35-5.261.015-.754.011-1.271-1.141-1.539-.629-.145-1.241-.205-1.809-.205-2.273 0-3.841.953-2.95 1.119 1.571.293 1.42 3.692 1.054 5.16-.638 2.556-3.036-2.024-4.035-4.305-.241-.548-.315-.974-1.175-.974h-3.255c-.492 0-.787.16-.787.516 0 .602 2.96 6.72 5.786 9.77 2.756 2.975 5.48 2.708 7.376 2.708z"/></symbol><symbol viewBox="0 0 24 24" id="svg-whatsapp" xmlns="http://www.w3.org/2000/svg"><path d="M.057 24l1.687-6.163c-1.041-1.804-1.588-3.849-1.587-5.946.003-6.556 5.338-11.891 11.893-11.891 3.181.001 6.167 1.24 8.413 3.488 2.245 2.248 3.481 5.236 3.48 8.414-.003 6.557-5.338 11.892-11.893 11.892-1.99-.001-3.951-.5-5.688-1.448l-6.305 1.654zm6.597-3.807c1.676.995 3.276 1.591 5.392 1.592 5.448 0 9.886-4.434 9.889-9.885.002-5.462-4.415-9.89-9.881-9.892-5.452 0-9.887 4.434-9.889 9.884-.001 2.225.651 3.891 1.746 5.634l-.999 3.648 3.742-.981zm11.387-5.464c-.074-.124-.272-.198-.57-.347-.297-.149-1.758-.868-2.031-.967-.272-.099-.47-.149-.669.149-.198.297-.768.967-.941 1.165-.173.198-.347.223-.644.074-.297-.149-1.255-.462-2.39-1.475-.883-.788-1.48-1.761-1.653-2.059-.173-.297-.018-.458.13-.606.134-.133.297-.347.446-.521.151-.172.2-.296.3-.495.099-.198.05-.372-.025-.521-.075-.148-.669-1.611-.916-2.206-.242-.579-.487-.501-.669-.51l-.57-.01c-.198 0-.52.074-.792.372s-1.04 1.016-1.04 2.479 1.065 2.876 1.213 3.074c.149.198 2.095 3.2 5.076 4.487.709.306 1.263.489 1.694.626.712.226 1.36.194 1.872.118.571-.085 1.758-.719 2.006-1.413.248-.695.248-1.29.173-1.414z"/></symbol></svg>